<?xml version="1.0" encoding="utf-8"?>
<!-- Svg Vector Icons : http://www.onlinewebfonts.com/icon -->
<!DOCTYPE svg PUBLIC "-//W3C//DTD SVG 1.1//EN" "http://www.w3.org/Graphics/SVG/1.1/DTD/svg11.dtd">
<svg version="1.1" xmlns="http://www.w3.org/2000/svg" xmlns:xlink="http://www.w3.org/1999/xlink" x="0px" y="0px" viewBox="0 0 1000 1000" enable-background="new 0 0 1000 1000" xml:space="preserve">
<metadata> Svg Vector Icons : http://www.onlinewebfonts.com/icon </metadata>
<g><path fill="#c70101" d="M10,500c0,270.2,219.8,490,490,490s490-219.8,490-490c0-270.2-219.8-490-490-490S10,229.8,10,500z M551.9,209.1l263.4,263.4c28.6,28.6,29.9,74,3,100.9c-26.9,26.9-72.4,25.6-100.9-3l-144-144v318.3c0,40.4-33,73.5-73.5,73.5c-40.4,0-73.5-33.1-73.5-73.5V426.5l-144,144c-28.6,28.6-74,29.9-100.9,3c-26.9-26.9-25.6-72.4,3-100.9l263.4-263.4C476.6,180.5,523.4,180.5,551.9,209.1z"/></g>
</svg>